#tb 0: 1/15
#media_type 0: video
#codec_id 0: rawvideo
#dimensions 0: 1600x2560
#sar 0: 0/1
0,          0,          0,        1,  8192000, 0xb8e34dd1
0,          1,          1,        1,  8192000, 0xb8e34dd1
0,          2,          2,        1,  8192000, 0xb8e34dd1
0,          3,          3,        1,  8192000, 0xb8e34dd1
0,          4,          4,        1,  8192000, 0xb8e34dd1
0,          5,          5,        1,  8192000, 0xb8e34dd1
0,          6,          6,        1,  8192000, 0xb8e34dd1
0,          7,          7,        1,  8192000, 0xb8e34dd1
0,          8,          8,        1,  8192000, 0xb8e34dd1
0,          9,          9,        1,  8192000, 0xb8e34dd1
